<?xml version="1.0" encoding="UTF-8"?>
<!DOCTYPE svg PUBLIC "-//W3C//DTD SVG 1.1//EN" "http://www.w3.org/Graphics/SVG/1.1/DTD/svg11.dtd">
<!-- Creator: CorelDRAW X8 -->
<svg xmlns="http://www.w3.org/2000/svg" xml:space="preserve" width="161.44mm" height="156.431mm" version="1.1" style="shape-rendering:geometricPrecision; text-rendering:geometricPrecision; image-rendering:optimizeQuality; fill-rule:evenodd; clip-rule:evenodd"
viewBox="0 0 3633 3520"
 xmlns:xlink="http://www.w3.org/1999/xlink">
 <defs>
  <style type="text/css">
   <![CDATA[
    .fil0 {fill:#D21E2A}
    .fil3 {fill:white}
    .fil2 {fill:#D21E2A;fill-rule:nonzero}
    .fil1 {fill:#D21E2A;fill-rule:nonzero}
   ]]>
  </style>
 </defs>
 <g id="Слой_x0020_1">
  <metadata id="CorelCorpID_0Corel-Layer"/>
  <g id="_2161268527584">
   <path class="fil0" d="M68 0l2692 0c37,0 67,30 67,68l0 2692c0,37 -30,67 -67,67l-2692 0c-38,0 -68,-30 -68,-67l0 -2692c0,-38 30,-68 68,-68z"/>
   <path class="fil1" d="M373 3511l-370 0 0 -560 46 0 0 517 326 0 0 43 -2 0zm121 0l-46 0c87,-188 173,-376 260,-564l43 0c87,188 174,376 261,564l-50 0 -71 -156 -325 0 -71 156 -1 0zm235 -511l-143 313 285 0 -142 -313zm439 511l-42 0c0,-187 0,-374 0,-560l42 0 380 479 0 -479 44 0 0 560 -34 0 -388 -490 0 490 -2 0zm631 0l-44 0 0 -560 204 0c62,0 115,16 152,47 36,29 56,72 56,126 0,57 -23,100 -59,130 -41,33 -98,50 -159,50l-148 0 0 207 -2 0zm2 -518l0 268 150 0c51,0 94,-13 124,-37 30,-24 47,-58 47,-99 0,-42 -16,-74 -44,-96 -29,-24 -72,-36 -122,-36l-155 0zm943 445c-50,50 -118,82 -200,82 -82,0 -151,-31 -200,-82 -52,-53 -81,-128 -81,-207 0,-79 30,-154 82,-207 49,-51 118,-83 200,-83 82,0 151,32 200,82 51,54 81,128 81,208 0,79 -30,153 -82,207zm-366 -31c42,44 100,72 167,72 67,0 125,-27 166,-71 43,-45 68,-108 68,-177 0,-69 -26,-132 -69,-177 -41,-44 -99,-71 -166,-71 -68,0 -125,27 -167,71 -42,45 -67,107 -67,177 0,69 26,131 68,176z"/>
   <polygon class="fil2" points="3622,552 3622,505 3032,505 3622,38 3622,1 2958,1 2958,48 3535,48 2958,505 2958,552 "/>
   <path class="fil2" d="M3633 980c0,-108 -46,-201 -99,-261l-256 0 0 269 45 0 0 -221 191 0c40,48 75,127 75,211 0,177 -127,284 -299,284 -162,0 -298,-113 -298,-274 0,-100 34,-161 79,-213l-37 -32c-55,66 -87,134 -87,242 0,198 164,328 343,328 189,0 343,-124 343,-333z"/>
   <polygon class="fil2" points="3622,1530 3622,1481 2958,1481 2958,1530 "/>
   <path class="fil2" d="M3631 1917c0,-128 -74,-220 -181,-220 -98,0 -153,65 -185,218 -32,157 -74,193 -145,193 -71,0 -126,-64 -126,-162 0,-73 20,-135 74,-198l-38 -31c-54,67 -81,131 -81,227 0,124 76,214 174,214 103,0 157,-65 189,-224 30,-151 71,-188 141,-188 78,0 134,69 134,168 0,98 -32,165 -99,238l37 32c71,-80 106,-161 106,-267z"/>
   <polygon class="fil2" points="3622,2828 3622,2351 3576,2351 3576,2779 3310,2779 3310,2399 3264,2399 3264,2779 3004,2779 3004,2356 2958,2356 2958,2828 "/>
   <path class="fil2" d="M3576 3464l-572 0 0 -171c0,-185 129,-301 286,-301 160,0 286,116 286,301l0 171zm46 50l0 -221c0,-209 -145,-353 -332,-353 -188,0 -332,144 -332,353l0 221 664 0z"/>
   <g>
    <path class="fil3" d="M696 894c9,62 61,75 120,42 -2,-19 -24,-45 -40,-54 -29,-15 -58,-1 -80,12z"/>
    <path class="fil3" d="M2249 1934l91 -388c0,0 -86,145 -157,285 -53,104 -95,208 -96,235 -1,12 0,17 4,28 35,95 85,133 117,198 -7,17 -19,31 -11,57 6,21 26,24 48,19 35,0 77,5 110,-7 17,-6 26,-13 43,-17 95,-22 54,-67 13,-129 -59,-87 -57,-115 -141,-205 -17,-29 -23,-35 -21,-76z"/>
    <path class="fil3" d="M1065 658c50,34 103,31 129,90 20,46 60,116 33,168 -30,59 -214,125 -184,255 17,-12 21,-24 33,-38 138,-160 279,-104 298,-218 15,-91 -53,-166 -93,-202 -58,-54 -172,-89 -216,-55z"/>
    <path class="fil3" d="M1757 2365c41,10 138,14 181,8 94,-14 101,13 94,-99 -27,18 -56,19 -84,-5 -33,-28 -27,-256 -40,-323 -10,-46 -60,-121 -82,-159 -37,-62 -29,-44 -176,-73 7,14 17,15 37,23 71,26 80,18 105,78 60,147 99,348 -23,473 -22,23 -33,42 -12,77z"/>
    <path class="fil3" d="M457 2103c-12,-207 -8,-918 56,-1070 32,-74 59,-199 70,-215 13,-22 19,-19 33,-35 28,-30 82,-217 225,-274 39,-15 82,-19 128,-16 44,3 81,18 119,22 -38,-50 -126,-85 -215,-69 -85,15 -149,55 -199,101 -85,80 -79,94 -129,171 -22,33 -48,31 -64,83 -16,53 -10,65 -36,116 -87,171 -92,289 -88,513 2,89 37,660 88,729 8,11 -4,1 9,9 4,-8 2,1 4,-14l-1 -51z"/>
    <path class="fil3" d="M983 2328c42,57 189,74 235,44 29,-19 23,-44 16,-78 72,-19 136,-210 46,-251 -49,-22 -65,5 -99,4 -18,-58 45,-128 68,-153 15,-15 104,-106 108,-116 -42,3 -132,46 -174,66 -19,9 -36,25 -51,32 -47,-56 -135,-262 -164,-340 -12,-31 -20,-78 -67,-100 20,73 17,16 15,120 -4,158 20,218 59,357 8,29 30,78 26,103 -9,66 19,57 25,108 5,37 25,86 14,118 -13,33 -50,42 -57,86z"/>
    <path class="fil3" d="M1256 560c104,24 422,23 564,71 80,27 297,202 374,262 65,52 108,82 136,178 98,327 59,548 79,879 22,-33 49,-253 54,-310 16,-210 12,-463 -36,-669 -45,-193 -164,-299 -328,-403 -51,-33 -177,-107 -243,-118 -104,-19 -238,-7 -338,11 -174,31 -253,98 -262,99z"/>
   </g>
  </g>
 </g>
</svg>
